<?xml version="1.0" encoding="UTF-8"?>
<svg id="Layer_1" data-name="Layer 1" xmlns="http://www.w3.org/2000/svg" xmlns:xlink="http://www.w3.org/1999/xlink" viewBox="0 0 670.88 298.48">
  <defs>
    <style>
      .cls-1 {
        fill: none;
      }

      .cls-2 {
        fill: #89cfc7;
      }

      .cls-3 {
        fill: #4c86c6;
      }

      .cls-4 {
        clip-path: url(#clippath);
      }
    </style>
    <clipPath id="clippath">
      <rect class="cls-1" width="670.88" height="298.48"/>
    </clipPath>
  </defs>
  <g class="cls-4">
    <path class="cls-3" d="M255.77,180.47c-1.72,0-3.11,1.39-3.11,3.11v25c0,1.72,1.39,3.11,3.11,3.11h25c1.72,0,3.11-1.39,3.11-3.11v-25c0-1.72-1.39-3.11-3.11-3.11h-25ZM280.76,108.28c1.72,0,3.11,1.39,3.11,3.11v25c0,1.72-1.39,3.11-3.11,3.11h-25c-1.72,0-3.11-1.39-3.11-3.11v-25c0-1.72,1.39-3.11,3.11-3.11h25ZM255.77,0c-1.72,0-3.11,1.39-3.11,3.11v25c0,1.72,1.39,3.11,3.11,3.11h25c1.72,0,3.11-1.39,3.11-3.11V3.11C283.88,1.39,282.48,0,280.76,0h-25ZM244.67,216.56c1.72,0,3.11,1.39,3.11,3.11v25c0,1.72-1.39,3.11-3.11,3.11h-25c-1.72,0-3.11-1.39-3.11-3.11v-25c0-1.72,1.39-3.11,3.11-3.11h25ZM219.67,180.47c-1.72,0-3.11,1.39-3.11,3.11v25c0,1.72,1.39,3.11,3.11,3.11h25c1.72,0,3.11-1.39,3.11-3.11v-25c0-1.72-1.39-3.11-3.11-3.11h-25ZM244.67,108.28c1.72,0,3.11,1.39,3.11,3.11v25c0,1.72-1.39,3.11-3.11,3.11h-25c-1.72,0-3.11-1.39-3.11-3.11v-25c0-1.72,1.39-3.11,3.11-3.11h25ZM219.67,0c-1.72,0-3.11,1.39-3.11,3.11v25c0,1.72,1.39,3.11,3.11,3.11h25c1.72,0,3.11-1.39,3.11-3.11V3.11C247.78,1.39,246.39,0,244.67,0h-25ZM208.58,72.19c1.72,0,3.11,1.39,3.11,3.11v25c0,1.72-1.39,3.11-3.11,3.11h-25c-1.72,0-3.11-1.39-3.11-3.11v-25c0-1.72,1.39-3.11,3.11-3.11h25ZM183.58,0c-1.72,0-3.11,1.39-3.11,3.11v25c0,1.72,1.39,3.11,3.11,3.11h25c1.72,0,3.11-1.39,3.11-3.11V3.11C211.69,1.39,210.3,0,208.58,0h-25ZM172.48,216.56c1.72,0,3.11,1.39,3.11,3.11v25c0,1.72-1.39,3.11-3.11,3.11h-25c-1.72,0-3.11-1.39-3.11-3.11v-25c0-1.72,1.39-3.11,3.11-3.11h25ZM147.49,180.47c-1.72,0-3.11,1.39-3.11,3.11v25c0,1.72,1.39,3.11,3.11,3.11h25c1.72,0,3.11-1.39,3.11-3.11v-25c0-1.72-1.39-3.11-3.11-3.11h-25ZM172.48,72.19c1.72,0,3.11,1.39,3.11,3.11v25c0,1.72-1.39,3.11-3.11,3.11h-25c-1.72,0-3.11-1.39-3.11-3.11v-25c0-1.72,1.39-3.11,3.11-3.11h25ZM147.49,36.09c-1.72,0-3.11,1.39-3.11,3.11v25c0,1.72,1.39,3.11,3.11,3.11h25c1.72,0,3.11-1.39,3.11-3.11v-25c0-1.72-1.39-3.11-3.11-3.11h-25ZM172.48,0c1.72,0,3.11,1.39,3.11,3.11v25c0,1.72-1.39,3.11-3.11,3.11h-25c-1.72,0-3.11-1.39-3.11-3.11V3.11C144.37,1.39,145.77,0,147.49,0h25ZM111.39,144.37c-1.72,0-3.11,1.39-3.11,3.11v25c0,1.72,1.39,3.11,3.11,3.11h25c1.72,0,3.11-1.39,3.11-3.11v-25c0-1.72-1.39-3.11-3.11-3.11h-25ZM136.39,108.28c1.72,0,3.11,1.39,3.11,3.11v25c0,1.72-1.39,3.11-3.11,3.11h-25c-1.72,0-3.11-1.39-3.11-3.11v-25c0-1.72,1.39-3.11,3.11-3.11h25ZM111.39,72.19c-1.72,0-3.11,1.39-3.11,3.11v25c0,1.72,1.39,3.11,3.11,3.11h25c1.72,0,3.11-1.39,3.11-3.11v-25c0-1.72-1.39-3.11-3.11-3.11h-25ZM100.3,144.37c1.72,0,3.11,1.39,3.11,3.11v25c0,1.72-1.39,3.11-3.11,3.11h-25c-1.72,0-3.11-1.39-3.11-3.11v-25c0-1.72,1.39-3.11,3.11-3.11h25ZM75.3,108.28c-1.72,0-3.11,1.39-3.11,3.11v25c0,1.72,1.39,3.11,3.11,3.11h25c1.72,0,3.11-1.39,3.11-3.11v-25c0-1.72-1.39-3.11-3.11-3.11h-25ZM100.3,72.19c1.72,0,3.11,1.39,3.11,3.11v25c0,1.72-1.39,3.11-3.11,3.11h-25c-1.72,0-3.11-1.39-3.11-3.11v-25c0-1.72,1.39-3.11,3.11-3.11h25ZM75.3,36.09c-1.72,0-3.11,1.39-3.11,3.11v25c0,1.72,1.39,3.11,3.11,3.11h25c1.72,0,3.11-1.39,3.11-3.11v-25c0-1.72-1.39-3.11-3.11-3.11h-25ZM100.3,0c1.72,0,3.11,1.39,3.11,3.11v25c0,1.72-1.39,3.11-3.11,3.11h-25c-1.72,0-3.11-1.39-3.11-3.11V3.11C72.19,1.39,73.58,0,75.3,0h25ZM39.2,216.56c-1.72,0-3.11,1.39-3.11,3.11v25c0,1.72,1.39,3.11,3.11,3.11h25c1.72,0,3.11-1.39,3.11-3.11v-25c0-1.72-1.39-3.11-3.11-3.11h-25ZM64.2,180.47c1.72,0,3.11,1.39,3.11,3.11v25c0,1.72-1.39,3.11-3.11,3.11h-25c-1.72,0-3.11-1.39-3.11-3.11v-25c0-1.72,1.39-3.11,3.11-3.11h25ZM3.11,216.56C1.39,216.56,0,217.95,0,219.67v25c0,1.72,1.39,3.11,3.11,3.11h25c1.72,0,3.11-1.39,3.11-3.11v-25c0-1.72-1.39-3.11-3.11-3.11H3.11ZM28.11,180.47c1.72,0,3.11,1.39,3.11,3.11v25c0,1.72-1.39,3.11-3.11,3.11H3.11C1.39,211.69,0,210.3,0,208.58v-25c0-1.72,1.39-3.11,3.11-3.11h25ZM3.11,144.37C1.39,144.37,0,145.77,0,147.49v25c0,1.72,1.39,3.11,3.11,3.11h25c1.72,0,3.11-1.39,3.11-3.11v-25c0-1.72-1.39-3.11-3.11-3.11H3.11ZM28.11,108.28c1.72,0,3.11,1.39,3.11,3.11v25c0,1.72-1.39,3.11-3.11,3.11H3.11C1.39,139.5,0,138.11,0,136.39v-25c0-1.72,1.39-3.11,3.11-3.11h25ZM3.11,72.19C1.39,72.19,0,73.58,0,75.3v25c0,1.72,1.39,3.11,3.11,3.11h25c1.72,0,3.11-1.39,3.11-3.11v-25c0-1.72-1.39-3.11-3.11-3.11H3.11ZM28.11,36.09c1.72,0,3.11,1.39,3.11,3.11v25c0,1.72-1.39,3.11-3.11,3.11H3.11C1.39,67.32,0,65.92,0,64.2v-25c0-1.72,1.39-3.11,3.11-3.11h25ZM3.11,0C1.39,0,0,1.39,0,3.11v25c0,1.72,1.39,3.11,3.11,3.11h25c1.72,0,3.11-1.39,3.11-3.11V3.11C31.22,1.39,29.83,0,28.11,0H3.11Z"/>
    <path class="cls-2" d="M255.76,144.37c-1.72,0-3.11,1.39-3.11,3.11v25c0,1.72,1.39,3.11,3.11,3.11h25c1.72,0,3.11-1.39,3.11-3.11v-25c0-1.72-1.39-3.11-3.11-3.11h-25ZM244.67,144.37c1.72,0,3.11,1.39,3.11,3.11v25c0,1.72-1.39,3.11-3.11,3.11h-25c-1.72,0-3.11-1.39-3.11-3.11v-25c0-1.72,1.39-3.11,3.11-3.11h25ZM183.58,144.37c-1.72,0-3.11,1.39-3.11,3.11v25c0,1.72,1.39,3.11,3.11,3.11h25c1.72,0,3.11-1.39,3.11-3.11v-25c0-1.72-1.39-3.11-3.11-3.11h-25ZM172.48,144.37c1.72,0,3.11,1.39,3.11,3.11v25c0,1.72-1.39,3.11-3.11,3.11h-25c-1.72,0-3.11-1.39-3.11-3.11v-25c0-1.72,1.39-3.11,3.11-3.11h25ZM255.76,216.56c-1.72,0-3.11,1.39-3.11,3.11v25c0,1.72,1.39,3.11,3.11,3.11h25c1.72,0,3.11-1.39,3.11-3.11v-25c0-1.72-1.39-3.11-3.11-3.11h-25ZM255.76,72.19c-1.72,0-3.11,1.39-3.11,3.11v25c0,1.72,1.39,3.11,3.11,3.11h25c1.72,0,3.11-1.39,3.11-3.11v-25c0-1.72-1.39-3.11-3.11-3.11h-25ZM255.76,36.09c-1.72,0-3.11,1.39-3.11,3.11v25c0,1.72,1.39,3.11,3.11,3.11h25c1.72,0,3.11-1.39,3.11-3.11v-25c0-1.72-1.39-3.11-3.11-3.11h-25ZM219.67,72.19c-1.72,0-3.11,1.39-3.11,3.11v25c0,1.72,1.39,3.11,3.11,3.11h25c1.72,0,3.11-1.39,3.11-3.11v-25c0-1.72-1.39-3.11-3.11-3.11h-25ZM219.67,36.09c-1.72,0-3.11,1.39-3.11,3.11v25c0,1.72,1.39,3.11,3.11,3.11h25c1.72,0,3.11-1.39,3.11-3.11v-25c0-1.72-1.39-3.11-3.11-3.11h-25ZM183.58,216.56c-1.72,0-3.11,1.39-3.11,3.11v25c0,1.72,1.39,3.11,3.11,3.11h25c1.72,0,3.11-1.39,3.11-3.11v-25c0-1.72-1.39-3.11-3.11-3.11h-25ZM183.58,180.47c-1.72,0-3.11,1.39-3.11,3.11v25c0,1.72,1.39,3.11,3.11,3.11h25c1.72,0,3.11-1.39,3.11-3.11v-25c0-1.72-1.39-3.11-3.11-3.11h-25ZM183.58,108.28c-1.72,0-3.11,1.39-3.11,3.11v25c0,1.72,1.39,3.11,3.11,3.11h25c1.72,0,3.11-1.39,3.11-3.11v-25c0-1.72-1.39-3.11-3.11-3.11h-25ZM183.58,36.09c-1.72,0-3.11,1.39-3.11,3.11v25c0,1.72,1.39,3.11,3.11,3.11h25c1.72,0,3.11-1.39,3.11-3.11v-25c0-1.72-1.39-3.11-3.11-3.11h-25ZM147.48,108.28c-1.72,0-3.11,1.39-3.11,3.11v25c0,1.72,1.39,3.11,3.11,3.11h25c1.72,0,3.11-1.39,3.11-3.11v-25c0-1.72-1.39-3.11-3.11-3.11h-25ZM111.39,216.56c-1.72,0-3.11,1.39-3.11,3.11v25c0,1.72,1.39,3.11,3.11,3.11h25c1.72,0,3.11-1.39,3.11-3.11v-25c0-1.72-1.39-3.11-3.11-3.11h-25ZM111.39,180.47c-1.72,0-3.11,1.39-3.11,3.11v25c0,1.72,1.39,3.11,3.11,3.11h25c1.72,0,3.11-1.39,3.11-3.11v-25c0-1.72-1.39-3.11-3.11-3.11h-25ZM111.39,36.09c-1.72,0-3.11,1.39-3.11,3.11v25c0,1.72,1.39,3.11,3.11,3.11h25c1.72,0,3.11-1.39,3.11-3.11v-25c0-1.72-1.39-3.11-3.11-3.11h-25ZM111.39,0c-1.72,0-3.11,1.39-3.11,3.11v25c0,1.72,1.39,3.11,3.11,3.11h25c1.72,0,3.11-1.39,3.11-3.11V3.11C139.5,1.39,138.11,0,136.39,0h-25ZM75.3,216.56c-1.72,0-3.11,1.39-3.11,3.11v25c0,1.72,1.39,3.11,3.11,3.11h25c1.72,0,3.11-1.39,3.11-3.11v-25c0-1.72-1.39-3.11-3.11-3.11h-25ZM75.3,180.47c-1.72,0-3.11,1.39-3.11,3.11v25c0,1.72,1.39,3.11,3.11,3.11h25c1.72,0,3.11-1.39,3.11-3.11v-25c0-1.72-1.39-3.11-3.11-3.11h-25ZM39.2,144.37c-1.72,0-3.11,1.39-3.11,3.11v25c0,1.72,1.39,3.11,3.11,3.11h25c1.72,0,3.11-1.39,3.11-3.11v-25c0-1.72-1.39-3.11-3.11-3.11h-25ZM39.2,108.28c-1.72,0-3.11,1.39-3.11,3.11v25c0,1.72,1.39,3.11,3.11,3.11h25c1.72,0,3.11-1.39,3.11-3.11v-25c0-1.72-1.39-3.11-3.11-3.11h-25ZM39.2,72.19c-1.72,0-3.11,1.39-3.11,3.11v25c0,1.72,1.39,3.11,3.11,3.11h25c1.72,0,3.11-1.39,3.11-3.11v-25c0-1.72-1.39-3.11-3.11-3.11h-25ZM39.2,36.09c-1.72,0-3.11,1.39-3.11,3.11v25c0,1.72,1.39,3.11,3.11,3.11h25c1.72,0,3.11-1.39,3.11-3.11v-25c0-1.72-1.39-3.11-3.11-3.11h-25ZM39.2,0c-1.72,0-3.11,1.39-3.11,3.11v25c0,1.72,1.39,3.11,3.11,3.11h25c1.72,0,3.11-1.39,3.11-3.11V3.11C67.31,1.39,65.92,0,64.2,0h-25Z"/>
    <path class="cls-3" d="M315.52,22.32c-2.92,0-5.29,2.37-5.29,5.29v47.69c0,2.92,2.37,5.29,5.29,5.29h20.28c2.92,0,5.29-2.37,5.29-5.29V27.61c0-2.92-2.37-5.29-5.29-5.29h-20.28ZM310.23,170.88c0,2.92,2.37,5.29,5.29,5.29h20.28c2.92,0,5.29-2.37,5.29-5.29v-67.08c0-2.92-2.37-5.29-5.29-5.29h-20.28c-2.92,0-5.29,2.37-5.29,5.29v67.08Z"/>
    <path class="cls-2" d="M420.96,50.94c0,29.29-23.76,52.04-52.93,52.04l-74.89.3c-1.72,0-3.11-1.38-3.11-3.1v-24.99c0-1.72,1.39-3.11,3.11-3.11l74.86-.06c12.17,0,22.09-8.83,22.09-21.07s-9.92-19.96-22.09-19.96l-74.86.23c-1.72,0-3.11-1.38-3.11-3.1V3.11C290.04,1.39,291.43,0,293.15,0h74.86C397.2,0,420.96,21.62,420.96,50.94"/>
    <path class="cls-3" d="M629.87,175.78h14.83v-40.67h16.03v-11.76h-46.96v11.76h16.1v40.67ZM588.61,150.39h-8.24v-15.35h8.24c6.14,0,9.21,2.85,9.21,7.71s-3.07,7.64-9.21,7.64M589.5,123.36h-23.97v52.42h14.83v-13.7h9.14c14.3,0,23.29-7.41,23.29-19.32s-8.99-19.4-23.29-19.4M529.89,164.32v-9.59h23.29v-11.08h-23.29v-8.84h26.44v-11.46h-41.11v52.42h42.09v-11.46h-27.41ZM486.08,176.83c9.66,0,17.45-3.52,22.54-9.89l-9.44-8.54c-3.3,3.97-7.34,6.14-12.36,6.14-8.61,0-14.6-5.99-14.6-14.98s5.99-14.98,14.6-14.98c5.02,0,9.06,2.17,12.36,6.14l9.44-8.54c-5.09-6.37-12.88-9.89-22.54-9.89-16.62,0-28.83,11.31-28.83,27.26s12.21,27.26,28.83,27.26M424.37,164.32v-9.59h23.29v-11.08h-23.29v-8.84h26.44v-11.46h-41.11v52.42h42.09v-11.46h-27.41ZM386.56,142.75c0,4.79-3.07,7.64-9.21,7.64h-8.24v-15.35h8.24c6.14,0,9.21,2.85,9.21,7.71M386.71,175.78h15.88l-11.31-16.48c6.52-3.15,10.26-8.84,10.26-16.55,0-11.98-8.99-19.4-23.29-19.4h-23.96v52.42h14.83v-13.93h8.09l9.51,13.93Z"/>
    <path class="cls-3" d="M647.66,247.57c15.58,0,23.22-7.79,23.22-16.92,0-19.32-29.73-13.33-29.73-21.34,0-2.62,2.25-4.72,8.46-4.72,4.57,0,9.51,1.35,14.53,4.04l4.57-11.01c-5.17-3-12.21-4.57-19.02-4.57-15.58,0-23.21,7.64-23.21,17,0,19.47,29.8,13.4,29.8,21.72,0,2.55-2.4,4.27-8.54,4.27s-12.66-2.1-17.3-5.17l-4.87,10.93c4.94,3.44,13.48,5.77,22.09,5.77M618.76,246.52l-.15-52.42h-12.21l-17.97,30.26-18.42-30.26h-12.21v52.42h13.71v-27.04l13.4,21.87h6.59l13.48-22.62.15,27.78h13.63ZM522.15,235.06v-9.59h23.29v-11.08h-23.29v-8.84h26.44v-11.46h-41.11v52.42h42.09v-11.46h-27.41ZM471.08,246.52h14.83v-40.67h16.03v-11.76h-46.96v11.76h16.1v40.67ZM430.64,247.57c15.58,0,23.22-7.79,23.22-16.92,0-19.32-29.73-13.33-29.73-21.34,0-2.62,2.25-4.72,8.46-4.72,4.57,0,9.51,1.35,14.53,4.04l4.57-11.01c-5.17-3-12.21-4.57-19.02-4.57-15.58,0-23.21,7.64-23.21,17,0,19.47,29.8,13.4,29.8,21.72,0,2.55-2.4,4.27-8.54,4.27s-12.66-2.1-17.3-5.17l-4.87,10.93c4.94,3.44,13.48,5.77,22.09,5.77M409.59,194.1h-14.38l-12.43,20.82-12.43-20.82h-15.65l20,33.4v19.02h14.83v-18.8l20.07-33.62ZM332.53,247.57c15.58,0,23.22-7.79,23.22-16.92,0-19.32-29.73-13.33-29.73-21.34,0-2.62,2.25-4.72,8.46-4.72,4.57,0,9.51,1.35,14.53,4.04l4.57-11.01c-5.17-3-12.21-4.57-19.02-4.57-15.58,0-23.22,7.64-23.22,17,0,19.47,29.81,13.4,29.81,21.72,0,2.55-2.4,4.27-8.54,4.27s-12.66-2.1-17.3-5.17l-4.87,10.93c4.94,3.44,13.48,5.77,22.09,5.77"/>
    <path class="cls-2" d="M648.78,295.38v-17.12h6.15c5.63,0,9.24,3.45,9.24,8.56s-3.61,8.56-9.24,8.56h-6.15ZM645.52,298.21h9.6c7.32,0,12.3-4.62,12.3-11.39s-4.98-11.39-12.3-11.39h-9.6v22.78ZM607.44,295.38v-7.36h11.42v-2.77h-11.42v-7h12.82v-2.83h-16.08v22.78h16.54v-2.83h-13.28ZM565.32,298.21h15.59v-2.83h-12.34v-19.95h-3.26v22.78ZM531.4,288.48h-5.53v-10.22h5.53c4.17,0,6.35,1.85,6.35,5.11s-2.18,5.11-6.35,5.11M531.5,275.43h-8.89v22.78h3.26v-6.9h5.63c5.92,0,9.5-2.99,9.5-7.94s-3.58-7.94-9.5-7.94M493,298.21h3.26v-22.78h-3.26v22.78ZM460.12,298.48c3.55,0,6.61-1.24,8.69-3.58l-2.12-2.05c-1.76,1.86-3.91,2.73-6.41,2.73-5.14,0-8.95-3.71-8.95-8.76s3.81-8.76,8.95-8.76c2.51,0,4.65.85,6.41,2.7l2.12-2.05c-2.08-2.34-5.14-3.55-8.66-3.55-6.93,0-12.08,4.92-12.08,11.65s5.14,11.65,12.04,11.65M420.31,275.43v16.99l-13.67-16.99h-2.67v22.78h3.26v-16.99l13.67,16.99h2.67v-22.78h-3.26ZM374.35,298.21h3.26v-22.78h-3.26v22.78ZM339.95,288.51h-5.53v-10.25h5.53c4.17,0,6.35,1.85,6.35,5.11s-2.18,5.14-6.35,5.14M349.94,298.21l-5.4-7.65c3.19-1.14,5.01-3.68,5.01-7.19,0-4.95-3.58-7.94-9.51-7.94h-8.89v22.78h3.26v-6.93h5.63c.49,0,.98-.03,1.43-.07l4.91,7h3.55ZM297.24,288.48h-5.53v-10.22h5.53c4.17,0,6.35,1.85,6.35,5.11s-2.18,5.11-6.35,5.11M297.34,275.43h-8.89v22.78h3.26v-6.9h5.63c5.92,0,9.51-2.99,9.51-7.94s-3.58-7.94-9.51-7.94M260.07,289.75c1.56,0,2.93-1.24,2.93-2.99s-1.37-2.96-2.93-2.96-2.96,1.27-2.96,2.96,1.37,2.99,2.96,2.99M214.66,295.38v-17.12h6.15c5.63,0,9.24,3.45,9.24,8.56s-3.61,8.56-9.24,8.56h-6.15ZM211.41,298.21h9.6c7.32,0,12.3-4.62,12.3-11.39s-4.98-11.39-12.3-11.39h-9.6v22.78ZM173.32,295.38v-7.36h11.43v-2.77h-11.43v-7h12.83v-2.83h-16.08v22.78h16.54v-2.83h-13.28ZM126.91,295.38v-17.12h6.15c5.63,0,9.24,3.45,9.24,8.56s-3.61,8.56-9.24,8.56h-6.15ZM123.65,298.21h9.6c7.32,0,12.3-4.62,12.3-11.39s-4.98-11.39-12.3-11.39h-9.6v22.78ZM94.03,298.21h3.25v-22.78h-3.25v22.78ZM58.2,298.48c6.02,0,9.63-3.48,9.63-10.09v-12.95h-3.16v12.82c0,5.05-2.34,7.32-6.44,7.32s-6.41-2.28-6.41-7.32v-12.82h-3.26v12.95c0,6.61,3.65,10.09,9.64,10.09M19.88,294.11c-1.63,1.04-3.42,1.47-5.34,1.47-5.24,0-9.05-3.74-9.05-8.76s3.81-8.76,9.08-8.76c2.57,0,4.72.81,6.61,2.64l2.02-2.02c-2.08-2.31-5.14-3.52-8.76-3.52-7.06,0-12.21,4.92-12.21,11.65s5.14,11.65,12.14,11.65c3.19,0,6.35-.98,8.63-2.9v-8.89h-3.12v7.42Z"/>
    <path class="cls-2" d="M260.69,292.35c3.05,0,5.53-2.47,5.53-5.53s-2.47-5.53-5.53-5.53-5.53,2.47-5.53,5.53,2.47,5.53,5.53,5.53"/>
  </g>
</svg>